# xmcd CD database file
#
# Track frame offsets:
#	150
#	8577
#	30651
#	53901
#	71712
#	94227
#	114776
#	136503
#	152905
#	171025
#	202413
#	212164
#	231101
#	245930
#
# Disc length: 3433 seconds
#
# Revision: 0
# Processed by: cddbd v1.5.1PL2 Copyright (c) Steve Scherf et al.
# Submitted via: CDex 1.51
#
DISCID=c10d670e
DTITLE=JOSHUA LaRUE - Landscape Tracks
DYEAR=1900
DGENRE=Jazz
TTITLE0=After Hours Style
TTITLE1=Kickers
TTITLE2=For Real
TTITLE3=Skunked
TTITLE4=Mad On The Subway
TTITLE5=Cloud Floatain
TTITLE6=Presence
TTITLE7=Mason Jar
TTITLE8=Sucker Growth
TTITLE9=Guitar Chalk
TTITLE10=Tejas Style
TTITLE11=Cloud Floatain Remix by Ultra Living
TTITLE12=Shrizinkydink
TTITLE13=Presence(2) Remix by Brendan Canty
EXTD=
EXTT0=
EXTT1=
EXTT2=
EXTT3=
EXTT4=
EXTT5=
EXTT6=
EXTT7=
EXTT8=
EXTT9=
EXTT10=
EXTT11=
EXTT12=
EXTT13=
PLAYORDER=
